PathFileType	4	(X/Y/Z)	31_2_rein_106_p1_0-153.trc
DataRate	CameraRate	NumFrames	NumMarkers	Units	OrigDataRate	OrigDataStartFrame	OrigNumFrames
43.0	43.0	5	27	m	43.0	96	154
Frame#	Time	RHip			RKnee			RAnkle			RBigToe			RSmallToe			RHeel			LHip			LKnee			LAnkle			LBigToe			LSmallToe			LHeel			Neck			Head			Nose			RShoulder			RElbow			RWrist			RThumb			RIndex			RPinky			LShoulder			LElbow			LWrist			LThumb			LIndex			LPinky			
		X1	Y1	Z1	X2	Y2	Z2	X3	Y3	Z3	X4	Y4	Z4	X5	Y5	Z5	X6	Y6	Z6	X7	Y7	Z7	X8	Y8	Z8	X9	Y9	Z9	X10	Y10	Z10	X11	Y11	Z11	X12	Y12	Z12	X13	Y13	Z13	X14	Y14	Z14	X15	Y15	Z15	X16	Y16	Z16	X17	Y17	Z17	X18	Y18	Z18	X19	Y19	Z19	X20	Y20	Z20	X21	Y21	Z21	X22	Y22	Z22	X23	Y23	Z23	X24	Y24	Z24	X25	Y25	Z25	X26	Y26	Z26	X27	Y27	Z27	
96	2.2325581395348837	0.19545932512319136	0.4552370780123157	0.16862438819224942	0.12440067386272291	0.7378620840984883	0.5322322980552605	0.08430626577422079	1.0509876642699236	0.9056008077589254	0.07694108812382422	0.8440875381766753	1.0057197987617739	0.1359374997296541	0.9102186005648967	1.0049063318209743	0.08166380220607568	1.1056556324025766	0.9382683669024595	4.3076073899004794e-05	0.4662089005533868	0.1392356213432709	-0.03213181013272857	0.6867714265596034	0.5201216875523562	-0.07254022542605235	1.0005684537834043	0.8729611260078263	-0.08677015358066785	0.8087650507288521	0.9783781125291765	-0.12930606574219677	0.887534304795188	0.9651085654693545	-0.043545893295709695	1.1172809314592425	0.9197437300885136	0.15580922941476705	0.17337486179100667	-0.4678524811271968	0.1709757256850226	0.06480328652776132	-0.6974127818417553	0.144493108366826	0.012617392578765306	-0.5172289295768051	0.30666730714991947	0.17838419587685644	-0.3361750424449207	0.45770983814755606	0.05561790061380643	-0.12574552870335792	0.4389937425294296	-0.06545558066497963	-0.32691803300557487	0.39034360036178506	-0.05715278766464104	-0.43478292189774853	0.3940628495709869	-0.07935229396651876	-0.4288134199043323	0.3992814124761143	-0.12422800603233276	-0.38610233500265506	-0.019012840741448024	0.19931536492203727	-0.3698490776765903	-0.26739319403666995	0.3310570689565566	-0.23340984162640424	-0.10842432794557805	0.38326549619787575	-0.024482716045845336	-0.01446417737729326	0.35975519768600184	-0.03189148949543249	0.0015257496599439305	0.36048034967695003	0.021225900830936558	-0.027552374898233964	0.36203489529995947	0.06803074693252709
97	2.255813953488372	0.19070774671226345	0.443732572650611	0.17039686966996548	0.12002688760885272	0.7245810259888001	0.5324584179017681	0.08421378121740367	1.0510328846053196	0.9054729694089652	0.08139361547482654	0.852885730394945	0.9995924800594664	0.13544923058188316	0.908165969701952	1.0007787719133197	0.081021425069782	1.100970967239867	0.9336267471396789	-0.0038836363078234588	0.4568561379196855	0.14438716358654044	-0.03173139795827411	0.6904337790361447	0.5240745982703288	-0.07258383911329772	1.0005257032190682	0.8733075659005407	-0.0867354561623902	0.8086432521417404	0.9783117671081173	-0.1292540495492848	0.8873013486685779	0.9649963835530123	-0.042924346828707764	1.120383768441559	0.9233016967360861	0.15138258177725056	0.17406468910668968	-0.46430258991170714	0.16856806805459149	0.07516776825121971	-0.7030246132400516	0.14428845416994057	0.010857631272709268	-0.5194903166596184	0.30649273628418866	0.17835221340777138	-0.3361134376177436	0.4576266247313365	0.05564960255849929	-0.1259107953176955	0.43558228738002003	-0.0667793836785391	-0.33013399827605494	0.38486406053088784	-0.06510843788830188	-0.4306982465898833	0.38568010406642467	-0.08809318458759971	-0.4283091368900487	0.3990834428898814	-0.12417632915109177	-0.3864500844024791	-0.01923763805217284	0.20039692676732904	-0.3665311456618652	-0.2717116515006954	0.3423020960232197	-0.23713133877086817	-0.10786566402073311	0.3821726427814151	-0.027566006876088393	-0.018583695787564566	0.34971531558401253	-0.0263618297018052	0.0014406641264161748	0.360315351971881	0.02108933708568825	-0.027609549384051715	0.36221559122731256	0.06795033659526441
98	2.2790697674418605	0.19076746090216637	0.44311606983297147	0.17023550727776	0.12005739861203991	0.7243223836539143	0.532441745083856	0.08417535860329799	1.0508212267484713	0.9055858054554904	0.0800132388297021	0.8265022698204557	1.0039747128377474	0.13583485088867764	0.9103263005521696	1.0048560418091927	0.07588678847094028	1.1045336352818378	0.938033350225151	-0.004272027408407509	0.4539397199573664	0.1411244951021571	-0.0356336813270786	0.6766537164009205	0.5242623633119985	-0.07255465138199552	1.00057474355705	0.8731238292205876	-0.08670980217231769	0.8087238107844545	0.9783166380633309	-0.12919351094122292	0.8874267439321086	0.9649733638477352	-0.043040088436788894	1.12085911203689	0.9239708453531044	0.15121944543236945	0.17390330766600054	-0.46421306972296383	0.16514213164647537	0.06583393374240512	-0.698001693852277	0.14425875459383553	0.011004868321407164	-0.5195593300838673	0.30223708078806694	0.1772305226250804	-0.33597663879274203	0.4563194395819616	0.0667199595970453	-0.12945436694785015	0.43545361235247665	-0.06678541792642947	-0.33007332190174665	0.3800325237633168	-0.07396887801758814	-0.42742596408355243	0.38137268232873844	-0.08639965801030228	-0.4225432723113763	0.4001055640508875	-0.11529329065077176	-0.38534180128488116	-0.01938072916201002	0.2002382952336506	-0.36650476671787247	-0.26996565593398797	0.3195923702352485	-0.22998276679454777	-0.10797842487250987	0.38302970980655365	-0.02404790408960042	-0.01859105255555218	0.34969272956353464	-0.026277746897543936	-0.00241310299265116	0.3493386835518027	0.023790349717263484	-0.027709768924981736	0.36209191162990206	0.06813558629184524
99	2.302325581395349	0.190736813288032	0.4441339080264605	0.1737091349379551	0.12005131017821936	0.7242426111526817	0.5323747410543149	0.07982001763995122	1.0352518133752557	0.9043705129937241	0.07983466305246698	0.8262961075675608	1.0041421362624032	0.13542415478159395	0.9097759871417469	1.0050445490517899	0.07573969630443815	1.1046025988766335	0.9382177913198374	-0.004328951480557995	0.45389038555165884	0.14115727070137438	-0.03187878808855382	0.6902164604646942	0.5240712832225817	-0.0726851237208357	1.0006870296342432	0.8733973079467539	-0.08672746200723434	0.8084349525515682	0.9784915097711784	-0.1291854775277	0.8873320380310803	0.965036700760047	-0.048117722748097606	1.1153839869112578	0.9233121806808459	0.14862339049742787	0.18542114058498768	-0.46920031824076114	0.16507027640699248	0.0657278591495146	-0.6980579453728867	0.14416531857697992	0.012796619022950735	-0.5171917959351741	0.3021366336338833	0.177074886362883	-0.33607070644417275	0.4516368843368532	0.05827132973952139	-0.12696928446837075	0.43067106961575924	-0.07349813866454064	-0.323727611854102	0.3781880144352554	-0.06269448702930701	-0.42892027819968254	0.383207387577848	-0.08586066659929169	-0.4254079760961105	0.39199784724625836	-0.11368494503977762	-0.3861884828168459	-0.01944921243010235	0.20016885292725153	-0.3665210727745423	-0.2742407456670256	0.33089813682510166	-0.23362708842763405	-0.11152370826466614	0.3710265813512905	-0.021407584702249915	-0.022281295176426175	0.3469519128103483	-0.02930416623741411	-0.006637812045051401	0.34724810638809467	0.023903842406795273	-0.027944161167826793	0.3627927855856239	0.07101748988509217
100	2.3255813953488373	0.19068699155281132	0.4437115987117988	0.17360477015782663	0.11983797796003584	0.7237841355093474	0.5320772254164762	0.07857148833302541	1.0376717344230864	0.9085988834016497	0.07586665550526303	0.8128070804348637	1.0025372491379498	0.13551393808729473	0.910144724628722	1.004998530872935	0.07439218516359772	1.1076415253699723	0.94708270742771	-0.004324618742330358	0.4537110732231795	0.14104806556359567	-0.03615242494705058	0.6731609134851384	0.5203907560240323	-0.07267894626318575	1.0009388479482229	0.8734375150259928	-0.08671288118861072	0.8083550434673675	0.9783561398210051	-0.12898861092390043	0.8873168314113256	0.9647571239467193	-0.048186129120281106	1.1164260562807393	0.9242223976804347	0.14851337268583553	0.18556928464804795	-0.4692429346580477	0.15809232310534854	0.07595909072395862	-0.7013607675167226	0.1401534708146386	0.011407888089656752	-0.5165996934387241	0.3020263422751458	0.17700907268234622	-0.3360765042158139	0.4515001954872568	0.05832067833264662	-0.1269040177236807	0.4262474108722114	-0.0789580803105636	-0.31508895977757434	0.378354441688713	-0.06450663549290563	-0.43466218874549	0.37536380625567933	-0.08220957964049988	-0.4174662556143376	0.3774357503197607	-0.12744590319181662	-0.37067363397607367	-0.022983388387565563	0.21123076729415716	-0.37094386523683076	-0.2699917828374221	0.3194796065621151	-0.2297338621181196	-0.11205053339345442	0.3720309536288161	-0.018083974064064503	-0.018242888927853945	0.350953187532762	-0.026571787819369364	-0.0026517734243420832	0.34872225172908217	0.02439684700551768	-0.024902708982407464	0.3634944045107498	0.07114558223950858
